<svg width="443" height="443" viewBox="0 0 443 443" fill="none" xmlns="http://www.w3.org/2000/svg">
<path d="M221.5 0L317.853 54.6126L413.325 110.75L414.205 221.5L413.325 332.25L317.853 388.387L221.5 443L125.147 388.387L29.6754 332.25L28.795 221.5L29.6754 110.75L125.147 54.6126L221.5 0Z" fill="#A65A57"/>
<circle cx="143.889" cy="313.919" r="1.61616" fill="white"/>
<circle cx="143.889" cy="309.071" r="1.61616" fill="white"/>
<circle cx="148.737" cy="313.919" r="1.61616" fill="white"/>
<circle r="1.61616" transform="matrix(-1 0 0 1 215 313.919)" fill="white"/>
<circle r="1.61616" transform="matrix(-1 0 0 1 215 308.263)" fill="white"/>
<circle r="1.61616" transform="matrix(-1 0 0 1 209.343 313.919)" fill="white"/>
<circle cx="235.202" cy="313.919" r="1.61616" fill="white"/>
<circle cx="235.202" cy="309.071" r="1.61616" fill="white"/>
<circle cx="240.05" cy="313.919" r="1.61616" fill="white"/>
<circle r="1.61616" transform="matrix(-1 0 0 1 306.313 313.919)" fill="white"/>
<circle r="1.61616" transform="matrix(-1 0 0 1 306.313 308.263)" fill="white"/>
<circle r="1.61616" transform="matrix(-1 0 0 1 300.657 313.919)" fill="white"/>
<rect x="137" y="285.212" width="83.2727" height="34.7879" rx="3" stroke="white" stroke-width="4"/>
<rect x="228.313" y="285.212" width="83.2727" height="34.7879" rx="3" stroke="white" stroke-width="4"/>
<rect x="180.636" y="244" width="83.2727" height="34.7879" rx="3" stroke="white" stroke-width="4"/>
<circle cx="187.525" cy="272.707" r="1.61616" fill="white"/>
<circle cx="187.525" cy="267.859" r="1.61616" fill="white"/>
<circle cx="192.374" cy="272.707" r="1.61616" fill="white"/>
<circle r="1.61616" transform="matrix(-1 0 0 1 258.636 272.707)" fill="white"/>
<circle r="1.61616" transform="matrix(-1 0 0 1 258.636 267.051)" fill="white"/>
<circle r="1.61616" transform="matrix(-1 0 0 1 252.98 272.707)" fill="white"/>
</svg>
