<svg width="443" height="443" viewBox="0 0 443 443" fill="none" xmlns="http://www.w3.org/2000/svg">
<path d="M221.5 0L317.853 54.6126L413.325 110.75L414.205 221.5L413.325 332.25L317.853 388.387L221.5 443L125.147 388.387L29.6754 332.25L28.795 221.5L29.6754 110.75L125.147 54.6126L221.5 0Z" fill="#393E41"/>
<path d="M166.077 304.341C167.656 302.815 169.656 301.797 171.819 301.418L207.479 295.162C215.65 293.728 222.406 301.51 219.84 309.399L214.58 325.57C213.054 330.259 208.595 333.36 203.668 333.158L164.665 331.555C154.999 331.157 150.516 319.375 157.473 312.653L166.077 304.341Z" fill="#E5E5E5"/>
<path d="M250.167 250.216C267.337 248.463 271.295 257.733 270.983 265.738C270.838 269.458 267.482 272.022 263.76 271.998C249.034 271.907 240.896 267.778 238.507 265.459C233.269 261.309 228.266 252.451 250.167 250.216Z" fill="#C4C4C4"/>
<path d="M290.408 307.341C300.487 316.574 293.974 333.375 280.306 333.402L242.132 333.476C233.384 333.494 226.478 326.053 227.146 317.331L229.325 288.876C230.215 277.251 243.448 271.041 252.958 277.786L275.921 294.07L290.408 307.341Z" fill="white"/>
<path d="M192.171 254.387C193.473 252.337 195.883 251.274 198.275 251.694L217.755 255.117C223.274 256.086 224.57 263.419 219.719 266.221L212.612 270.327C212.248 270.538 211.863 270.709 211.463 270.839L189.853 277.854C184.505 279.59 179.921 273.677 182.935 268.93L192.171 254.387Z" fill="white"/>
</svg>
