<svg width="443" height="443" viewBox="0 0 443 443" fill="none" xmlns="http://www.w3.org/2000/svg">
<path d="M221.5 0L317.853 54.6126L413.325 110.75L414.205 221.5L413.325 332.25L317.853 388.387L221.5 443L125.147 388.387L29.6754 332.25L28.795 221.5L29.6754 110.75L125.147 54.6126L221.5 0Z" fill="#FFD787"/>
<path d="M219.237 292.5C221.403 286.5 220.237 272.8 198.237 266C197.07 270.167 199.637 281.3 219.237 292.5Z" fill="white" stroke="white"/>
<path d="M219.237 271.5C221.403 265.5 220.237 251.8 198.237 245C197.07 249.167 199.637 260.3 219.237 271.5Z" fill="white" fill-opacity="0.48"/>
<path d="M223.762 292.5C221.595 286.5 222.762 272.8 244.763 266C245.93 270.167 243.363 281.3 223.762 292.5Z" fill="white" fill-opacity="0.48"/>
<path d="M223.762 273.5C221.595 267.5 222.762 253.8 244.763 247C245.93 251.167 243.363 262.3 223.762 273.5Z" fill="white"/>
<path d="M223.762 249.5C221.595 243.5 222.762 229.8 244.763 223C245.93 227.167 243.363 238.3 223.762 249.5Z" fill="white" fill-opacity="0.48"/>
<path d="M217.237 249.5C219.403 243.5 218.237 229.8 196.237 223C195.07 227.167 197.637 238.3 217.237 249.5Z" fill="white" stroke="white"/>
<path d="M219.017 235.755C224.791 233.044 233.654 222.532 222.906 202.167C219.134 204.289 213.077 213.976 219.017 235.755Z" fill="white" stroke="white"/>
<line x1="222.5" y1="354" x2="222.5" y2="299" stroke="white" stroke-width="7"/>
<path d="M250.536 320.822C251.704 317.586 251.075 310.195 239.207 306.526C238.577 308.774 239.962 314.78 250.536 320.822Z" fill="white" stroke="white"/>
<path d="M250.536 309.493C251.704 306.257 251.075 298.866 239.207 295.197C238.577 297.445 239.962 303.451 250.536 309.493Z" fill="white" fill-opacity="0.48"/>
<path d="M252.977 320.822C251.808 317.586 252.437 310.195 264.307 306.526C264.936 308.774 263.551 314.78 252.977 320.822Z" fill="white" fill-opacity="0.48"/>
<path d="M252.977 310.572C251.808 307.336 252.437 299.945 264.307 296.276C264.936 298.524 263.551 304.53 252.977 310.572Z" fill="white"/>
<path d="M252.977 297.625C251.808 294.388 252.437 286.997 264.307 283.329C264.936 285.577 263.551 291.583 252.977 297.625Z" fill="white" fill-opacity="0.48"/>
<path d="M249.457 297.625C250.625 294.388 249.996 286.997 238.128 283.329C237.498 285.577 238.883 291.583 249.457 297.625Z" fill="white" stroke="white"/>
<path d="M250.417 290.21C253.532 288.748 258.313 283.076 252.515 272.09C250.48 273.235 247.212 278.461 250.417 290.21Z" fill="white" stroke="white"/>
<line x1="250.684" y1="354" x2="250.684" y2="324.329" stroke="white" stroke-width="7"/>
<path d="M182.536 318.822C183.704 315.586 183.075 308.195 171.207 304.526C170.577 306.774 171.962 312.78 182.536 318.822Z" fill="white" stroke="white"/>
<path d="M182.536 307.493C183.704 304.257 183.075 296.866 171.207 293.197C170.577 295.445 171.962 301.451 182.536 307.493Z" fill="white" fill-opacity="0.48"/>
<path d="M184.977 318.822C183.808 315.586 184.437 308.195 196.307 304.526C196.936 306.774 195.551 312.78 184.977 318.822Z" fill="white" fill-opacity="0.48"/>
<path d="M184.977 308.572C183.808 305.336 184.437 297.945 196.307 294.276C196.936 296.524 195.551 302.53 184.977 308.572Z" fill="white"/>
<path d="M184.977 295.625C183.808 292.388 184.437 284.997 196.307 281.329C196.936 283.577 195.551 289.583 184.977 295.625Z" fill="white" fill-opacity="0.48"/>
<path d="M181.457 295.625C182.625 292.388 181.996 284.997 170.128 281.329C169.498 283.577 170.883 289.583 181.457 295.625Z" fill="white" stroke="white"/>
<path d="M182.417 288.21C185.532 286.748 190.313 281.076 184.515 270.09C182.48 271.235 179.212 276.461 182.417 288.21Z" fill="white" stroke="white"/>
<line x1="182.684" y1="352" x2="182.684" y2="322.329" stroke="white" stroke-width="7"/>
</svg>
