<svg width="443" height="443" viewBox="0 0 443 443" fill="none" xmlns="http://www.w3.org/2000/svg">
<path d="M221.5 0L317.853 54.6126L413.325 110.75L414.205 221.5L413.325 332.25L317.853 388.387L221.5 443L125.147 388.387L29.6754 332.25L28.795 221.5L29.6754 110.75L125.147 54.6126L221.5 0Z" fill="#416B3D"/>
<rect x="169.7" y="305.25" width="15.24" height="21.59" fill="white" fill-opacity="0.48"/>
<path d="M176.685 210L193.733 283.914H159.637L176.685 210Z" fill="white"/>
<path d="M176.685 234.638L193.733 308.552H159.637L176.685 234.638Z" fill="white"/>
<path d="M176.685 223.859L193.733 297.773H159.637L176.685 223.859Z" fill="white"/>
<rect x="257.33" y="305.25" width="15.24" height="21.59" fill="white" fill-opacity="0.48"/>
<path d="M264.315 210L281.363 283.914H247.267L264.315 210Z" fill="white"/>
<path d="M264.315 234.638L281.363 308.552H247.267L264.315 234.638Z" fill="white"/>
<path d="M264.315 223.859L281.363 297.773H247.267L264.315 223.859Z" fill="white"/>
<rect x="212.88" y="331.92" width="15.24" height="21.59" fill="white" fill-opacity="0.48"/>
<path d="M219.865 236.67L236.913 310.584H202.817L219.865 236.67Z" fill="white"/>
<path d="M219.865 261.308L236.913 335.222H202.817L219.865 261.308Z" fill="white"/>
<path d="M219.865 250.529L236.913 324.443H202.817L219.865 250.529Z" fill="white"/>
</svg>
